<?xml version="1.0" encoding="UTF-8" standalone="no"?>
<svg
   xmlns:dc="http://purl.org/dc/elements/1.1/"
   xmlns:cc="http://creativecommons.org/ns#"
   xmlns:rdf="http://www.w3.org/1999/02/22-rdf-syntax-ns#"
   xmlns:svg="http://www.w3.org/2000/svg"
   xmlns="http://www.w3.org/2000/svg"
   xmlns:sodipodi="http://sodipodi.sourceforge.net/DTD/sodipodi-0.dtd"
   xmlns:inkscape="http://www.inkscape.org/namespaces/inkscape"
   version="1.1"
   x="0px"
   y="0px"
   width="100px"
   height="100px"
   viewBox="0 0 100 100"
   enable-background="new 0 0 100 100"
   xml:space="preserve"
   id="svg3117"
   inkscape:version="0.48.4 r9939"
   sodipodi:docname="noun_project_15433.svg"><metadata
   id="metadata3139"><rdf:RDF><cc:Work
       rdf:about=""><dc:format>image/svg+xml</dc:format><dc:type
         rdf:resource="http://purl.org/dc/dcmitype/StillImage" /></cc:Work></rdf:RDF></metadata><defs
   id="defs3137" /><sodipodi:namedview
   pagecolor="#ffffff"
   bordercolor="#666666"
   borderopacity="1"
   objecttolerance="10"
   gridtolerance="10"
   guidetolerance="10"
   inkscape:pageopacity="0"
   inkscape:pageshadow="2"
   inkscape:window-width="640"
   inkscape:window-height="480"
   id="namedview3135"
   showgrid="false"
   inkscape:zoom="2.36"
   inkscape:cx="50"
   inkscape:cy="50"
   inkscape:window-x="203"
   inkscape:window-y="26"
   inkscape:window-maximized="0"
   inkscape:current-layer="svg3117" />
<g
   id="Captions">
</g>
<g
   id="Your_Icon"
   style="fill:#ffffff">
	<g
   id="g3121"
   style="fill:#ffffff">
		<g
   id="g3123"
   style="fill:#ffffff">
			<path
   fill="#000000"
   d="M18.531,36.838c-7.111,0-12.876,5.76-12.876,12.869c0,7.106,5.765,12.872,12.876,12.872     c7.102,0,12.871-5.766,12.871-12.872C31.402,42.598,25.633,36.838,18.531,36.838z"
   id="path3125"
   style="fill:#ffffff" />
		</g>
		<g
   id="g3127"
   style="fill:#ffffff">
			<path
   fill="#000000"
   d="M50.324,36.838c-7.105,0-12.867,5.76-12.867,12.869c0,7.106,5.762,12.872,12.867,12.872     c7.108,0,12.872-5.766,12.872-12.872C63.196,42.598,57.433,36.838,50.324,36.838z"
   id="path3129"
   style="fill:#ffffff" />
		</g>
		<g
   id="g3131"
   style="fill:#ffffff">
			<path
   fill="#000000"
   d="M82.124,36.838c-7.103,0-12.871,5.76-12.871,12.869c0,7.106,5.769,12.872,12.871,12.872     C89.23,62.579,95,56.813,95,49.707C95,42.598,89.23,36.838,82.124,36.838z"
   id="path3133"
   style="fill:#ffffff" />
		</g>
	</g>
</g>
</svg>