<?xml version="1.0" encoding="UTF-8" standalone="no"?>
<svg
   xmlns:dc="http://purl.org/dc/elements/1.1/"
   xmlns:cc="http://creativecommons.org/ns#"
   xmlns:rdf="http://www.w3.org/1999/02/22-rdf-syntax-ns#"
   xmlns:svg="http://www.w3.org/2000/svg"
   xmlns="http://www.w3.org/2000/svg"
   xmlns:sodipodi="http://sodipodi.sourceforge.net/DTD/sodipodi-0.dtd"
   xmlns:inkscape="http://www.inkscape.org/namespaces/inkscape"
   version="1.1"
   x="0px"
   y="0px"
   width="79.988754"
   height="77.999756"
   viewBox="0 0 79.988754 77.999756"
   xml:space="preserve"
   id="svg3081"
   inkscape:version="0.48.4 r9939"
   sodipodi:docname="noun_project_18963.svg"><metadata
   id="metadata3091"><rdf:RDF><cc:Work
       rdf:about=""><dc:format>image/svg+xml</dc:format><dc:type
         rdf:resource="http://purl.org/dc/dcmitype/StillImage" /></cc:Work></rdf:RDF></metadata><defs
   id="defs3089" /><sodipodi:namedview
   pagecolor="#ffffff"
   bordercolor="#666666"
   borderopacity="1"
   objecttolerance="10"
   gridtolerance="10"
   guidetolerance="10"
   inkscape:pageopacity="0"
   inkscape:pageshadow="2"
   inkscape:window-width="1304"
   inkscape:window-height="746"
   id="namedview3087"
   showgrid="false"
   fit-margin-top="0"
   fit-margin-left="0"
   fit-margin-right="0"
   fit-margin-bottom="0"
   inkscape:zoom="5.59"
   inkscape:cx="39"
   inkscape:cy="38.999761"
   inkscape:window-x="54"
   inkscape:window-y="-8"
   inkscape:window-maximized="1"
   inkscape:current-layer="svg3081" />
<g
   id="Captions"
   transform="translate(-11,-11)">
</g>
<g
   id="Your_Icon"
   style="fill:#ffffff"
   transform="translate(-11,-11)">
	<path
   d="m 11,42.676 c 0,17.495 14.262,31.655 31.879,31.655 17.594,0 31.877,-14.16 31.877,-31.655 C 74.756,25.182 60.473,11 42.879,11 25.262,11 11,25.182 11,42.676 z m 10.102,0 c 0,-11.957 9.736,-21.633 21.781,-21.633 12.02,0 21.775,9.676 21.775,21.633 0,11.958 -9.756,21.637 -21.775,21.637 -12.045,0 -21.781,-9.68 -21.781,-21.637 z M 65.324,71.723 79.035,87.34 c 2.207,2.203 3.633,2.223 5.877,0 l 4.402,-4.361 c 2.165,-2.162 2.3,-3.557 0,-5.842 L 73.523,63.586 65.324,71.723 z"
   id="path3085"
   style="fill:#ffffff"
   inkscape:connector-curvature="0" />
</g>
</svg>