<svg height="87.40625" id="Layer_1" style="enable-background:new 0 0 100 85.416" version="1.0" viewBox="0 0 90.46875 87.40625" width="90.46875" xml:space="preserve" xmlns="http://www.w3.org/2000/svg"><defs id="defs23">
	
	
</defs>



<g id="g3805" style="fill:#fff" transform="translate(-2.0625,1)"><path d="m17.9063,21c-3.231,0 -5.8438,2.6117 -5.8438,5.8438l0,27.4375c0,3.231 2.6128,5.8438 5.8438,5.8438l.0313,0 0,19.4375c0,3.231 2.5445,5.8438 5.6875,5.8438l8.75,0c3.14,0 5.6875,-2.6117 5.6875,-5.8438l0,-19.4375 .0313,0c3.231,0 5.8438,-2.6117 5.8438,-5.8438l0,-3.7813 -6.7188,0c-4.768,0 -8.6875,-3.9207 -8.6875,-8.6875l0,-2.25c0,-4.7674 3.9201,-8.6875 8.6875,-8.6875l6.7188,0 0,-4.0313C43.9365,23.6118 41.3248,21 38.0938,21l-20.1875,0z" id="path3803" style="fill:#fff"></path><circle cx="50" cy="9.55" d="M59.55,9.55C59.55,14.8243 55.2743,19.1 50,19.1 44.7257,19.1 40.45,14.8243 40.45,9.55 40.45,4.2757 44.7257,0 50,0c5.2743,0 9.55,4.2757 9.55,9.55z" id="circle7" r="9.55" style="fill:#fff" transform="translate(-22)"></circle><path d="m55.8438,15.0938c-3.231,0 -5.875,2.6117 -5.875,5.8438l0,12.7813 -12.75,0c-3.231,0 -5.8438,2.6128 -5.8438,5.8438l0,2.25c0,3.231 2.6117,5.8438 5.8438,5.8438l12.75,0 0,12.75c0,3.231 2.644,5.875 5.875,5.875l2.25,0c3.231,0 5.8438,-2.643 5.8438,-5.875l0,-12.75 12.75,0c3.232,-10e-4 5.8438,-2.6128 5.8438,-5.8438l0,-2.25c0,-3.231 -2.6117,-5.8438 -5.8438,-5.8438l-12.75,0 0,-12.7813c-10e-4,-3.232 -2.6128,-5.8438 -5.8438,-5.8438l-2.25,0z" id="path5-1" style="fill:#fff"></path></g></svg>
