<?xml version="1.0" encoding="UTF-8" standalone="no"?>
<svg
   xmlns:dc="http://purl.org/dc/elements/1.1/"
   xmlns:cc="http://creativecommons.org/ns#"
   xmlns:rdf="http://www.w3.org/1999/02/22-rdf-syntax-ns#"
   xmlns:svg="http://www.w3.org/2000/svg"
   xmlns="http://www.w3.org/2000/svg"
   xmlns:sodipodi="http://sodipodi.sourceforge.net/DTD/sodipodi-0.dtd"
   xmlns:inkscape="http://www.inkscape.org/namespaces/inkscape"
   version="1.1"
   x="0px"
   y="0px"
   width="100px"
   height="100px"
   viewBox="0 0 100 100"
   enable-background="new 0 0 100 100"
   xml:space="preserve"
   id="svg3001"
   inkscape:version="0.48.4 r9939"
   sodipodi:docname="edit.svg"><metadata
   id="metadata3015"><rdf:RDF><cc:Work
       rdf:about=""><dc:format>image/svg+xml</dc:format><dc:type
         rdf:resource="http://purl.org/dc/dcmitype/StillImage" /></cc:Work></rdf:RDF></metadata><defs
   id="defs3013" /><sodipodi:namedview
   pagecolor="#ffffff"
   bordercolor="#666666"
   borderopacity="1"
   objecttolerance="10"
   gridtolerance="10"
   guidetolerance="10"
   inkscape:pageopacity="0"
   inkscape:pageshadow="2"
   inkscape:window-width="1304"
   inkscape:window-height="746"
   id="namedview3011"
   showgrid="false"
   inkscape:zoom="5.59"
   inkscape:cx="32.63599"
   inkscape:cy="50"
   inkscape:window-x="54"
   inkscape:window-y="-8"
   inkscape:window-maximized="1"
   inkscape:current-layer="Your_Icon"
   inkscape:snap-grids="true"
   inkscape:snap-page="true" />
<g
   id="Captions"
   display="none">
</g>
<g
   id="Your_Icon"
   style="fill:#ffffff">
	<path
   d="M 80.129,46.726 V 76.697 H 10.017 V 23.244 H 70.153 L 80.13,13.261 H 6.677 C 3.006,13.261 0,16.267 0,19.938 v 60.098 c 0,3.671 3.006,6.677 6.677,6.677 h 76.791 c 3.671,0 6.678,-3.006 6.678,-6.677 V 36.71 L 80.129,46.726 z"
   id="path3005"
   style="fill:#706784;fill-opacity:1"
   inkscape:connector-curvature="0" />
	<path
   d="M 60.1,43.873 92.558,11.249 c 0.835,-0.832 1.928,-1.246 3.026,-1.249 1.096,0 2.19,0.417 3.025,1.249 l 0.144,0.146 c 1.663,1.663 1.663,4.382 0,6.048 L 66.285,50.067 60.1,43.873 z"
   id="path3007"
   style="fill:#706784;fill-opacity:1"
   inkscape:connector-curvature="0" />
	<path
   d="m 58.089,63.579 c -5.55,5.55 -13.531,7.737 -24.702,6.439 10.017,-6.6 6.76,-11.832 13.036,-18.108 3.221,-3.225 8.447,-3.225 11.672,0.003 3.221,3.225 3.221,8.441 -0.006,11.666 z"
   id="path3009"
   style="fill:#706784;fill-opacity:1"
   inkscape:connector-curvature="0" />
</g>
</svg>